<?xml version="1.0" encoding="utf-8"?>
<!-- Generator: Adobe Illustrator 23.0.1, SVG Export Plug-In . SVG Version: 6.00 Build 0)  -->
<svg version="1.1" id="Layer_1" xmlns="http://www.w3.org/2000/svg" xmlns:xlink="http://www.w3.org/1999/xlink" x="0px" y="0px"
	 viewBox="0 0 100 100" style="enable-background:new 0 0 100 100;" xml:space="preserve">
<path d="M85.8,58.6V54c0-5.8-1.4-11.4-3.8-16.3c2-1.9,3.4-4.5,3.7-7.4c4.7-1.6,8.1-6.1,8.1-11.3c0-1.1-0.9-2-2-2h-31
	c-1.4,0-2.8,0.3-4.1,0.9c-2.6-0.6-5.2-0.9-7.9-0.9c-20.4,0-37,16.6-37,37v4.6L6.4,70.8c-0.3,0.7-0.2,1.6,0.4,2.2
	c0.5,0.6,1.4,0.8,2.1,0.5c12.4-4.2,28-2.9,37.9,3.2c1.2,0.7,2.5,1.4,4.1,2.1c6.1,2.8,13.3,4.2,20.5,4.2s14.4-1.4,20.5-4.2
	c0,0,0,0,0,0l0.2-0.1c0.2-0.1,0.3-0.1,0.5-0.2c1-0.5,1.4-1.6,1-2.6L85.8,58.6z M54.8,39V27c0-3.3,2.7-6,6-6h28.8c-0.9,3.5-4,6-7.8,6
	h-10c-1.1,0-2,0.9-2,2c0,1.1,0.9,2,2,2h9.8c-0.9,3.5-4,6-7.8,6c-0.1,0-0.3,0-0.4,0l0,0h-9.6c-1.1,0-2,0.9-2,2c0,1.1,0.9,2,2,2h9.7
	c-0.9,3.4-4,6-7.7,6H43c0.9-3.5,4-6,7.8-6h2C53.9,41,54.8,40.1,54.8,39z M15.8,54c0-18.2,14.8-33,33-33c1.3,0,2.6,0.1,3.8,0.2
	c-1.2,1.6-1.8,3.6-1.8,5.8v10c-6.6,0-12,5.4-12,12c0,1.1,0.9,2,2,2h25c6.2,0,11.3-4.7,11.9-10.7c0.3-0.1,0.6-0.2,0.9-0.4
	c2,4.3,3.1,9,3.1,14v3h-66V54z M52.5,75.2c-1.4-0.7-2.6-1.3-3.6-1.9C42.1,69.1,33.3,67,24.4,67c-4.2,0-8.5,0.5-12.6,1.5l3.3-7.5
	h67.4L89,75.7C78,80.2,63.2,80,52.5,75.2z"/>
</svg>
